<svg width="32" height="32" viewBox="0 0 32 32" fill="none" xmlns="http://www.w3.org/2000/svg">
<path d="M32 6.07558C30.8232 6.59703 29.5591 6.94936 28.2301 7.10861C29.5858 6.29684 30.6259 5.00872 31.1164 3.47538C29.848 4.22796 28.4429 4.77478 26.9476 5.06792C25.7497 3.79389 24.0444 2.99622 22.1559 2.99622C18.5311 2.99622 15.5913 5.93606 15.5913 9.56364C15.5913 10.0766 15.6505 10.5755 15.7604 11.0575C10.3021 10.7827 5.46675 8.16842 2.22813 4.19696C1.66441 5.16939 1.34026 6.29684 1.34026 7.49758C1.34026 9.77504 2.50013 11.7861 4.26037 12.9629C3.18365 12.9277 2.17176 12.6331 1.28671 12.1413V12.2258C1.28671 15.4067 3.54867 18.0604 6.55333 18.6636C6.00088 18.813 5.42165 18.8919 4.8241 18.8919C4.4013 18.8919 3.98837 18.8525 3.58813 18.7764C4.42385 21.3836 6.84788 23.2834 9.72148 23.3341C7.47362 25.0958 4.6423 26.1457 1.56716 26.1457C1.03726 26.1457 0.514402 26.1147 0 26.0541C2.90602 27.9186 6.35603 29.0038 10.0625 29.0038C22.1404 29.0038 28.7431 19.0004 28.7431 10.3247C28.7431 10.0428 28.736 9.75813 28.7233 9.47626C30.0058 8.54893 31.1192 7.3947 31.9972 6.07981L32 6.07558Z" fill="#1D9BF0"/>
</svg>
